<svg width="42" height="42" viewBox="0 0 42 42" fill="none" xmlns="http://www.w3.org/2000/svg">
<path d="M13.3333 31.25L20.8333 23.75L28.3333 31.25L31.25 28.3333L23.75 20.8333L31.25 13.3333L28.3333 10.4167L20.8333 17.9167L13.3333 10.4167L10.4167 13.3333L17.9167 20.8333L10.4167 28.3333L13.3333 31.25ZM20.8333 41.6667C17.9514 41.6667 15.2431 41.1194 12.7083 40.025C10.1736 38.9306 7.96875 37.4465 6.09375 35.5729C4.21875 33.6993 2.73472 31.4944 1.64167 28.9583C0.548614 26.4222 0.00139153 23.7139 2.63713e-06 20.8333C-0.00138625 17.9528 0.545836 15.2444 1.64167 12.7083C2.7375 10.1722 4.22153 7.96736 6.09375 6.09375C7.96597 4.22014 10.1708 2.73611 12.7083 1.64167C15.2458 0.547222 17.9542 0 20.8333 0C23.7125 0 26.4208 0.547222 28.9583 1.64167C31.4958 2.73611 33.7007 4.22014 35.5729 6.09375C37.4451 7.96736 38.9299 10.1722 40.0271 12.7083C41.1243 15.2444 41.6708 17.9528 41.6667 20.8333C41.6625 23.7139 41.1153 26.4222 40.025 28.9583C38.9347 31.4944 37.4507 33.6993 35.5729 35.5729C33.6951 37.4465 31.4903 38.9312 28.9583 40.0271C26.4264 41.1229 23.7181 41.6694 20.8333 41.6667ZM20.8333 37.5C25.4861 37.5 29.4271 35.8854 32.6562 32.6562C35.8854 29.4271 37.5 25.4861 37.5 20.8333C37.5 16.1806 35.8854 12.2396 32.6562 9.01042C29.4271 5.78125 25.4861 4.16667 20.8333 4.16667C16.1806 4.16667 12.2396 5.78125 9.01042 9.01042C5.78125 12.2396 4.16667 16.1806 4.16667 20.8333C4.16667 25.4861 5.78125 29.4271 9.01042 32.6562C12.2396 35.8854 16.1806 37.5 20.8333 37.5Z" fill="black"/>
</svg>
