<svg width="42" height="42" viewBox="0 0 42 42" fill="none" xmlns="http://www.w3.org/2000/svg">
<path d="M20.8333 41.6667C17.9514 41.6667 15.2431 41.1194 12.7083 40.025C10.1736 38.9306 7.96875 37.4465 6.09375 35.5729C4.21875 33.6993 2.73472 31.4944 1.64167 28.9583C0.548614 26.4222 0.00139153 23.7139 2.63713e-06 20.8333C-0.00138625 17.9528 0.545836 15.2444 1.64167 12.7083C2.7375 10.1722 4.22153 7.96736 6.09375 6.09375C7.96597 4.22014 10.1708 2.73611 12.7083 1.64167C15.2458 0.547222 17.9542 0 20.8333 0C23.0903 0 25.2257 0.329861 27.2396 0.989583C29.2535 1.64931 31.1111 2.56944 32.8125 3.75L29.7917 6.82292C28.4722 5.98958 27.066 5.33889 25.5729 4.87083C24.0799 4.40278 22.5 4.16806 20.8333 4.16667C16.2153 4.16667 12.2826 5.79028 9.03542 9.0375C5.7882 12.2847 4.16528 16.2167 4.16667 20.8333C4.16806 25.45 5.79167 29.3826 9.0375 32.6312C12.2833 35.8799 16.2153 37.5028 20.8333 37.5C25.4514 37.4972 29.384 35.8743 32.6313 32.6312C35.8785 29.3882 37.5014 25.4556 37.5 20.8333C37.5 20.2083 37.4653 19.5833 37.3958 18.9583C37.3264 18.3333 37.2222 17.7257 37.0833 17.1354L40.4688 13.75C40.8507 14.8611 41.1458 16.0069 41.3542 17.1875C41.5625 18.3681 41.6667 19.5833 41.6667 20.8333C41.6667 23.7153 41.1194 26.4236 40.025 28.9583C38.9306 31.4931 37.4465 33.6979 35.5729 35.5729C33.6993 37.4479 31.4944 38.9326 28.9583 40.0271C26.4222 41.1215 23.7139 41.6681 20.8333 41.6667ZM17.9167 30.4167L9.0625 21.5625L11.9792 18.6458L17.9167 24.5833L38.75 3.69792L41.6667 6.61458L17.9167 30.4167Z" fill="black"/>
</svg>
