<svg width="38" height="38" viewBox="0 0 38 38" fill="none" xmlns="http://www.w3.org/2000/svg">
<path fill-rule="evenodd" clip-rule="evenodd" d="M33.2222 20.5592L37.3571 21.076C36.2116 30.3338 28.3178 37.5 18.75 37.5C12.8598 37.5 7.60391 34.7839 4.1665 30.5358L4.1667 37.5H0V22.9167H14.5833V27.0833L6.78184 27.0852C9.41728 30.8622 13.7951 33.3333 18.75 33.3333C26.1915 33.3333 32.3312 27.7597 33.2222 20.5592ZM37.5 0V14.5833H22.9167V10.4167L30.7192 10.4164C28.0839 6.63848 23.7056 4.1667 18.75 4.1667C11.3084 4.1667 5.16865 9.74043 4.27773 16.9409L0.142871 16.4241C1.28828 7.16631 9.18223 0 18.75 0C24.6402 0 29.8961 2.71611 33.3335 6.96416L33.3333 0H37.5Z" fill="black"/>
</svg>
